<svg xmlns="http://www.w3.org/2000/svg" width="24" height="24" viewBox="0 0 24 24" fill="none">
  <path fill-rule="evenodd" clip-rule="evenodd" d="M12 16.645C11.5858 16.645 11.25 16.3092 11.25 15.895V12C11.25 11.5858 11.5858 11.25 12 11.25C12.4142 11.25 12.75 11.5858 12.75 12V15.895C12.75 16.3092 12.4142 16.645 12 16.645Z" fill="#333333"/>
  <path fill-rule="evenodd" clip-rule="evenodd" d="M12.7541 8.5C12.7541 8.91421 12.4183 9.25 12.0041 9.25H11.9951C11.5809 9.25 11.2451 8.91421 11.2451 8.5C11.2451 8.08579 11.5809 7.75 11.9951 7.75H12.0041C12.4183 7.75 12.7541 8.08579 12.7541 8.5Z" fill="#333333"/>
  <path fill-rule="evenodd" clip-rule="evenodd" d="M18.6961 18.6959C19.9191 17.4729 20.5 15.4268 20.5 11.9999C20.5 8.57298 19.9191 6.52681 18.6961 5.30383C17.4731 4.08086 15.4269 3.49988 12 3.49988C8.5731 3.49988 6.52693 4.08086 5.30396 5.30383C4.08099 6.52681 3.5 8.57298 3.5 11.9999C3.5 15.4268 4.08099 17.4729 5.30396 18.6959C6.52693 19.9189 8.5731 20.4999 12 20.4999C15.4269 20.4999 17.4731 19.9189 18.6961 18.6959ZM19.7567 19.7566C18.089 21.4244 15.5101 21.9999 12 21.9999C8.48991 21.9999 5.91108 21.4244 4.2433 19.7566C2.57552 18.0888 2 15.51 2 11.9999C2 8.48978 2.57552 5.91095 4.2433 4.24317C5.91108 2.5754 8.48991 1.99988 12 1.99988C15.5101 1.99988 18.089 2.5754 19.7567 4.24317C21.4245 5.91095 22 8.48978 22 11.9999C22 15.51 21.4245 18.0888 19.7567 19.7566Z" fill="#333333"/>
</svg>