<svg xmlns="http://www.w3.org/2000/svg" width="20" height="21" viewBox="0 0 20 21" fill="none">
  <g clip-path="url(#clip0_764_407)">
    <path d="M13.8489 0.5C13.8954 0.5 13.9419 0.5 13.9911 0.5C14.1053 1.91044 13.5669 2.96432 12.9127 3.72751C12.2707 4.48542 11.3916 5.2205 9.9697 5.10897C9.87485 3.71872 10.4141 2.74301 11.0675 1.98158C11.6735 1.27197 12.7844 0.640517 13.8489 0.5Z" fill="#333333"/>
    <path d="M18.1531 15.1805C18.1531 15.1946 18.1531 15.2069 18.1531 15.2201C17.7535 16.4303 17.1835 17.4675 16.488 18.43C15.853 19.3038 15.0749 20.4798 13.6855 20.4798C12.485 20.4798 11.6875 19.7078 10.4571 19.6868C9.15558 19.6657 8.43983 20.3323 7.24982 20.5C7.11369 20.5 6.97757 20.5 6.84408 20.5C5.97023 20.3735 5.26501 19.6815 4.75125 19.0579C3.23629 17.2154 2.06561 14.8354 1.84781 11.7897C1.84781 11.4911 1.84781 11.1934 1.84781 10.8948C1.94002 8.71499 2.99917 6.94272 4.40698 6.08381C5.14996 5.62712 6.17135 5.23807 7.30866 5.41196C7.79608 5.48749 8.29404 5.65435 8.73052 5.81946C9.14417 5.97842 9.66145 6.26033 10.1515 6.2454C10.4835 6.23574 10.8137 6.06273 11.1483 5.94065C12.1284 5.58673 13.0892 5.18098 14.3556 5.37156C15.8776 5.60166 16.9578 6.2779 17.6253 7.32124C16.3378 8.14063 15.3199 9.37542 15.4938 11.4841C15.6484 13.3995 16.762 14.5201 18.1531 15.1805Z" fill="#333333"/>
  </g>
  <defs>
    <clipPath id="clip0_764_407">
      <rect width="20" height="20" fill="white" transform="translate(0 0.5)"/>
    </clipPath>
  </defs>
</svg>