<svg xmlns="http://www.w3.org/2000/svg" width="20" height="20" viewBox="0 0 20 20" fill="none">
  <path d="M5.85947 11.8028C5.92145 11.8653 5.99518 11.9149 6.07642 11.9487C6.15766 11.9826 6.2448 12 6.3328 12C6.42081 12 6.50795 11.9826 6.58919 11.9487C6.67043 11.9149 6.74416 11.8653 6.80614 11.8028L9.85947 8.74947C9.92145 8.68698 9.99518 8.63739 10.0764 8.60354C10.1577 8.56969 10.2448 8.55227 10.3328 8.55227C10.4208 8.55227 10.508 8.56969 10.5892 8.60354C10.6704 8.63739 10.7442 8.68698 10.8061 8.74947L13.8595 11.8028C13.9214 11.8653 13.9952 11.9149 14.0764 11.9487C14.1577 11.9826 14.2448 12 14.3328 12C14.4208 12 14.508 11.9826 14.5892 11.9487C14.6704 11.9149 14.7442 11.8653 14.8061 11.8028C14.9303 11.6779 15 11.5089 15 11.3328C15 11.1567 14.9303 10.9877 14.8061 10.8628L11.7461 7.8028C11.3711 7.42827 10.8628 7.21789 10.3328 7.21789C9.8028 7.21789 9.29447 7.42827 8.91947 7.8028L5.85947 10.8628C5.7353 10.9877 5.66561 11.1567 5.66561 11.3328C5.66561 11.5089 5.7353 11.6779 5.85947 11.8028Z" fill="#2764FE"/>
</svg>