<svg xmlns="http://www.w3.org/2000/svg" width="20" height="20" viewBox="0 0 20 20" fill="none">
  <path fill-rule="evenodd" clip-rule="evenodd" d="M9.16667 1.66667H10.8333C12.214 1.66667 13.3333 2.78596 13.3333 4.16667H15.8333H16.875C17.2202 4.16667 17.5 4.44649 17.5 4.79167C17.5 5.13685 17.2202 5.41667 16.875 5.41667H15.8333V15C15.8333 16.3807 14.714 17.5 13.3333 17.5H6.66667C5.28595 17.5 4.16667 16.3807 4.16667 15V5.41667H3.125C2.77982 5.41667 2.5 5.13685 2.5 4.79167C2.5 4.44649 2.77982 4.16667 3.125 4.16667H4.16667H6.66667C6.66667 2.78596 7.78595 1.66667 9.16667 1.66667ZM5.41667 5.41667H6.66667H13.3333H14.5833V15C14.5833 15.6904 14.0237 16.25 13.3333 16.25H6.66667C5.97631 16.25 5.41667 15.6904 5.41667 15V5.41667ZM12.0833 4.16667H7.91667C7.91667 3.47632 8.47631 2.91667 9.16667 2.91667H10.8333C11.5237 2.91667 12.0833 3.47632 12.0833 4.16667ZM7.70833 7.50001H8.95833V14.1667H7.70833V7.50001ZM12.2917 7.50001H11.0417V14.1667H12.2917V7.50001Z" fill="#FD4958"/>
</svg>