<svg xmlns="http://www.w3.org/2000/svg" width="24" height="24" viewBox="0 0 24 24" fill="none">
  <path d="M16.5 13.5C16.9734 13.5 17.3572 13.1163 17.3572 12.6429C17.3572 12.1695 16.9734 11.7857 16.5 11.7857C16.0266 11.7857 15.6429 12.1695 15.6429 12.6429C15.6429 13.1163 16.0266 13.5 16.5 13.5Z" fill="#C4C4C5"/>
  <path d="M16.5 16.9286C16.9734 16.9286 17.3572 16.5448 17.3572 16.0714C17.3572 15.598 16.9734 15.2143 16.5 15.2143C16.0266 15.2143 15.6429 15.598 15.6429 16.0714C15.6429 16.5448 16.0266 16.9286 16.5 16.9286Z" fill="#C4C4C5"/>
  <path d="M13.0714 12.6429C13.0714 13.1163 12.6877 13.5 12.2143 13.5C11.7409 13.5 11.3571 13.1163 11.3571 12.6429C11.3571 12.1695 11.7409 11.7857 12.2143 11.7857C12.6877 11.7857 13.0714 12.1695 13.0714 12.6429Z" fill="#C4C4C5"/>
  <path d="M13.0714 16.0714C13.0714 16.5448 12.6877 16.9286 12.2143 16.9286C11.7409 16.9286 11.3571 16.5448 11.3571 16.0714C11.3571 15.598 11.7409 15.2143 12.2143 15.2143C12.6877 15.2143 13.0714 15.598 13.0714 16.0714Z" fill="#C4C4C5"/>
  <path d="M7.92855 13.5C8.40195 13.5 8.7857 13.1163 8.7857 12.6429C8.7857 12.1695 8.40195 11.7857 7.92855 11.7857C7.45517 11.7857 7.07141 12.1695 7.07141 12.6429C7.07141 13.1163 7.45517 13.5 7.92855 13.5Z" fill="#C4C4C5"/>
  <path d="M7.92855 16.9286C8.40195 16.9286 8.7857 16.5448 8.7857 16.0714C8.7857 15.598 8.40195 15.2143 7.92855 15.2143C7.45517 15.2143 7.07141 15.598 7.07141 16.0714C7.07141 16.5448 7.45517 16.9286 7.92855 16.9286Z" fill="#C4C4C5"/>
  <path fill-rule="evenodd" clip-rule="evenodd" d="M7.92857 3C8.28361 3 8.57143 3.28782 8.57143 3.64286V4.29662C9.13886 4.28571 9.764 4.28571 10.4515 4.28571H13.9769C14.6645 4.28571 15.2897 4.28571 15.8571 4.29662V3.64286C15.8571 3.28782 16.145 3 16.5 3C16.855 3 17.1429 3.28782 17.1429 3.64286V4.35179C17.3656 4.36878 17.5767 4.39013 17.7763 4.41697C18.7812 4.55208 19.5946 4.83675 20.2361 5.47821C20.8775 6.11967 21.1622 6.93304 21.2973 7.93798C21.4286 8.91444 21.4286 10.1621 21.4286 11.7373V13.5483C21.4286 15.1235 21.4286 16.3713 21.2973 17.3477C21.1622 18.3526 20.8775 19.1661 20.2361 19.8075C19.5946 20.4489 18.7812 20.7336 17.7763 20.8688C16.7998 21 15.5522 21 13.977 21H10.4516C8.87644 21 7.62873 21 6.65227 20.8688C5.64734 20.7336 4.83395 20.4489 4.19249 19.8075C3.55104 19.1661 3.26637 18.3526 3.13126 17.3477C2.99997 16.3713 2.99998 15.1236 3 13.5483V11.7374C2.99998 10.1621 2.99997 8.91445 3.13126 7.93798C3.26637 6.93304 3.55104 6.11967 4.19249 5.47821C4.83395 4.83675 5.64734 4.55208 6.65227 4.41697C6.85191 4.39013 7.06291 4.36878 7.28571 4.35179V3.64286C7.28571 3.28782 7.57353 3 7.92857 3ZM6.82359 5.69122C5.96122 5.80716 5.46438 6.02459 5.10163 6.38734C4.73888 6.75009 4.52145 7.24694 4.40551 8.1093C4.38587 8.25534 4.36946 8.40909 4.35573 8.57143H20.0728C20.0591 8.40909 20.0427 8.25535 20.023 8.1093C19.9071 7.24694 19.6897 6.75009 19.3269 6.38734C18.9642 6.02459 18.4673 5.80716 17.605 5.69122C16.7241 5.57279 15.563 5.57143 13.9286 5.57143H10.5C8.86558 5.57143 7.70444 5.57279 6.82359 5.69122ZM4.28571 11.7857C4.28571 11.0537 4.28599 10.4166 4.29693 9.85714H20.1316C20.1426 10.4166 20.1429 11.0537 20.1429 11.7857V13.5C20.1429 15.1344 20.1415 16.2956 20.023 17.1765C19.9071 18.0387 19.6897 18.5356 19.3269 18.8984C18.9642 19.2611 18.4673 19.4786 17.605 19.5945C16.7241 19.7129 15.563 19.7143 13.9286 19.7143H10.5C8.86558 19.7143 7.70444 19.7129 6.82359 19.5945C5.96122 19.4786 5.46438 19.2611 5.10163 18.8984C4.73888 18.5356 4.52145 18.0387 4.40551 17.1765C4.28708 16.2956 4.28571 15.1344 4.28571 13.5V11.7857Z" fill="#C4C4C5"/>
</svg>