<svg xmlns="http://www.w3.org/2000/svg" width="18" height="18" viewBox="0 0 18 18" fill="none">
  <path d="M6 4.3125C5.6925 4.3125 5.4375 4.0575 5.4375 3.75V1.5C5.4375 1.1925 5.6925 0.9375 6 0.9375C6.3075 0.9375 6.5625 1.1925 6.5625 1.5V3.75C6.5625 4.0575 6.3075 4.3125 6 4.3125Z" fill="#2764FE"/>
  <path d="M12 4.3125C11.6925 4.3125 11.4375 4.0575 11.4375 3.75V1.5C11.4375 1.1925 11.6925 0.9375 12 0.9375C12.3075 0.9375 12.5625 1.1925 12.5625 1.5V3.75C12.5625 4.0575 12.3075 4.3125 12 4.3125Z" fill="#2764FE"/>
  <path d="M6.375 10.8751C6.2775 10.8751 6.18 10.8526 6.09 10.8151C5.9925 10.7776 5.9175 10.7251 5.8425 10.6576C5.7075 10.5151 5.625 10.3276 5.625 10.1251C5.625 10.0276 5.6475 9.93008 5.685 9.84008C5.7225 9.75008 5.775 9.66758 5.8425 9.59258C5.9175 9.52508 5.9925 9.47258 6.09 9.43508C6.36 9.32258 6.6975 9.38258 6.9075 9.59258C7.0425 9.73508 7.125 9.93008 7.125 10.1251C7.125 10.1701 7.1175 10.2226 7.11 10.2751C7.1025 10.3201 7.0875 10.3651 7.065 10.4101C7.05 10.4551 7.0275 10.5001 6.9975 10.5451C6.975 10.5826 6.9375 10.6201 6.9075 10.6576C6.765 10.7926 6.57 10.8751 6.375 10.8751Z" fill="#2764FE"/>
  <path d="M9 10.8749C8.9025 10.8749 8.805 10.8524 8.715 10.8149C8.6175 10.7774 8.5425 10.7249 8.4675 10.6574C8.3325 10.5149 8.25 10.3274 8.25 10.1249C8.25 10.0274 8.2725 9.92993 8.31 9.83993C8.3475 9.74993 8.4 9.66743 8.4675 9.59243C8.5425 9.52493 8.6175 9.47243 8.715 9.43493C8.985 9.31493 9.3225 9.38243 9.5325 9.59243C9.6675 9.73493 9.75 9.92993 9.75 10.1249C9.75 10.1699 9.7425 10.2224 9.735 10.2749C9.7275 10.3199 9.7125 10.3649 9.69 10.4099C9.675 10.4549 9.6525 10.4999 9.6225 10.5449C9.6 10.5824 9.5625 10.6199 9.5325 10.6574C9.39 10.7924 9.195 10.8749 9 10.8749Z" fill="#2764FE"/>
  <path d="M11.625 10.8749C11.5275 10.8749 11.43 10.8524 11.34 10.8149C11.2425 10.7774 11.1675 10.7249 11.0925 10.6574C11.0625 10.6199 11.0325 10.5824 11.0025 10.5449C10.9725 10.4999 10.95 10.4549 10.935 10.4099C10.9125 10.3649 10.8975 10.3199 10.89 10.2749C10.8825 10.2224 10.875 10.1699 10.875 10.1249C10.875 9.92993 10.9575 9.73493 11.0925 9.59243C11.1675 9.52493 11.2425 9.47243 11.34 9.43493C11.6175 9.31493 11.9475 9.38243 12.1575 9.59243C12.2925 9.73493 12.375 9.92993 12.375 10.1249C12.375 10.1699 12.3675 10.2224 12.36 10.2749C12.3525 10.3199 12.3375 10.3649 12.315 10.4099C12.3 10.4549 12.2775 10.4999 12.2475 10.5449C12.225 10.5824 12.1875 10.6199 12.1575 10.6574C12.015 10.7924 11.82 10.8749 11.625 10.8749Z" fill="#2764FE"/>
  <path d="M6.375 13.4999C6.2775 13.4999 6.18 13.4775 6.09 13.44C6 13.4025 5.9175 13.3499 5.8425 13.2824C5.7075 13.1399 5.625 12.9449 5.625 12.7499C5.625 12.6524 5.6475 12.5549 5.685 12.4649C5.7225 12.3674 5.775 12.285 5.8425 12.2175C6.12 11.94 6.63 11.94 6.9075 12.2175C7.0425 12.36 7.125 12.5549 7.125 12.7499C7.125 12.9449 7.0425 13.1399 6.9075 13.2824C6.765 13.4174 6.57 13.4999 6.375 13.4999Z" fill="#2764FE"/>
  <path d="M9 13.4999C8.805 13.4999 8.61 13.4174 8.4675 13.2824C8.3325 13.1399 8.25 12.9449 8.25 12.7499C8.25 12.6524 8.2725 12.5549 8.31 12.4649C8.3475 12.3674 8.4 12.285 8.4675 12.2175C8.745 11.94 9.255 11.94 9.5325 12.2175C9.6 12.285 9.6525 12.3674 9.69 12.4649C9.7275 12.5549 9.75 12.6524 9.75 12.7499C9.75 12.9449 9.6675 13.1399 9.5325 13.2824C9.39 13.4174 9.195 13.4999 9 13.4999Z" fill="#2764FE"/>
  <path d="M11.625 13.4999C11.43 13.4999 11.235 13.4174 11.0925 13.2824C11.025 13.2149 10.9725 13.1324 10.935 13.0349C10.8975 12.9449 10.875 12.8474 10.875 12.7499C10.875 12.6524 10.8975 12.5549 10.935 12.4649C10.9725 12.3674 11.025 12.2849 11.0925 12.2174C11.265 12.0449 11.5275 11.9624 11.7675 12.0149C11.82 12.0224 11.865 12.0374 11.91 12.0599C11.955 12.0749 12 12.0974 12.045 12.1274C12.0825 12.1499 12.12 12.1874 12.1575 12.2174C12.2925 12.3599 12.375 12.5549 12.375 12.7499C12.375 12.9449 12.2925 13.1399 12.1575 13.2824C12.015 13.4174 11.82 13.4999 11.625 13.4999Z" fill="#2764FE"/>
  <path d="M15.375 7.37988H2.625C2.3175 7.37988 2.0625 7.12488 2.0625 6.81738C2.0625 6.50988 2.3175 6.25488 2.625 6.25488H15.375C15.6825 6.25488 15.9375 6.50988 15.9375 6.81738C15.9375 7.12488 15.6825 7.37988 15.375 7.37988Z" fill="#2764FE"/>
  <path d="M12 17.0625H6C3.2625 17.0625 1.6875 15.4875 1.6875 12.75V6.375C1.6875 3.6375 3.2625 2.0625 6 2.0625H12C14.7375 2.0625 16.3125 3.6375 16.3125 6.375V12.75C16.3125 15.4875 14.7375 17.0625 12 17.0625ZM6 3.1875C3.855 3.1875 2.8125 4.23 2.8125 6.375V12.75C2.8125 14.895 3.855 15.9375 6 15.9375H12C14.145 15.9375 15.1875 14.895 15.1875 12.75V6.375C15.1875 4.23 14.145 3.1875 12 3.1875H6Z" fill="#2764FE"/>
</svg>