<svg xmlns="http://www.w3.org/2000/svg" width="16" height="16" viewBox="0 0 16 16" fill="none">
  <path fill-rule="evenodd" clip-rule="evenodd" d="M4.66699 1.16663C4.94313 1.16663 5.16699 1.39049 5.16699 1.66663V2.66663C5.16699 2.94277 4.94313 3.16663 4.66699 3.16663C4.39085 3.16663 4.16699 2.94277 4.16699 2.66663V1.66663C4.16699 1.39049 4.39085 1.16663 4.66699 1.16663Z" fill="#2764FE"/>
  <path fill-rule="evenodd" clip-rule="evenodd" d="M11.333 1.16663C11.6091 1.16663 11.833 1.39049 11.833 1.66663V2.66663C11.833 2.94277 11.6091 3.16663 11.333 3.16663C11.0569 3.16663 10.833 2.94277 10.833 2.66663V1.66663C10.833 1.39049 11.0569 1.16663 11.333 1.16663Z" fill="#2764FE"/>
  <path fill-rule="evenodd" clip-rule="evenodd" d="M1.16699 6C1.16699 5.72386 1.39085 5.5 1.66699 5.5H14.3337C14.6098 5.5 14.8337 5.72386 14.8337 6C14.8337 6.27614 14.6098 6.5 14.3337 6.5H1.66699C1.39085 6.5 1.16699 6.27614 1.16699 6Z" fill="#2764FE"/>
  <path fill-rule="evenodd" clip-rule="evenodd" d="M6.62873 2.16663H9.37061C10.5958 2.16661 11.5662 2.16661 12.3257 2.26872C13.1073 2.3738 13.7399 2.59521 14.2389 3.09412C14.7377 3.59303 14.9591 4.22567 15.0643 5.00728C15.1663 5.76675 15.1663 6.73716 15.1663 7.96236V9.37089C15.1663 10.5961 15.1663 11.5665 15.0643 12.326C14.9591 13.1076 14.7377 13.7402 14.2389 14.2392C13.7399 14.738 13.1073 14.9594 12.3257 15.0646C11.5662 15.1666 10.5958 15.1666 9.37061 15.1666H6.62873C5.40356 15.1666 4.43313 15.1666 3.67366 15.0646C2.89205 14.9594 2.25941 14.738 1.7605 14.2392C1.26159 13.7402 1.04018 13.1076 0.935101 12.326C0.832988 11.5665 0.832995 10.5961 0.833008 9.37089V7.96236C0.832995 6.73716 0.832988 5.76675 0.935101 5.00728C1.04018 4.22567 1.26159 3.59303 1.7605 3.09412C2.25941 2.59521 2.89205 2.3738 3.67366 2.26872C4.43313 2.16661 5.40355 2.16661 6.62873 2.16663ZM3.80691 3.2598C3.13618 3.34997 2.74975 3.51909 2.46761 3.80123C2.18547 4.08337 2.01635 4.4698 1.92618 5.14053C1.83407 5.82563 1.83301 6.72876 1.83301 7.99996V9.33329C1.83301 10.6045 1.83407 11.5076 1.92618 12.1928C2.01635 12.8634 2.18547 13.2499 2.46761 13.532C2.74975 13.8142 3.13618 13.9833 3.80691 14.0734C4.49201 14.1656 5.39513 14.1666 6.66634 14.1666H9.33301C10.6042 14.1666 11.5073 14.1656 12.1925 14.0734C12.8631 13.9833 13.2496 13.8142 13.5317 13.532C13.8139 13.2499 13.983 12.8634 14.0731 12.1928C14.1653 11.5076 14.1663 10.6045 14.1663 9.33329V7.99996C14.1663 6.72876 14.1653 5.82563 14.0731 5.14053C13.983 4.4698 13.8139 4.08337 13.5317 3.80123C13.2496 3.51909 12.8631 3.34997 12.1925 3.2598C11.5073 3.16769 10.6042 3.16663 9.33301 3.16663H6.66634C5.39513 3.16663 4.49201 3.16769 3.80691 3.2598Z" fill="#2764FE"/>
  <path d="M11.9993 11.3333C11.9993 11.7015 11.7009 12 11.3327 12C10.9645 12 10.666 11.7015 10.666 11.3333C10.666 10.9651 10.9645 10.6666 11.3327 10.6666C11.7009 10.6666 11.9993 10.9651 11.9993 11.3333Z" fill="#2764FE"/>
  <path d="M11.9993 8.66667C11.9993 9.03487 11.7009 9.33333 11.3327 9.33333C10.9645 9.33333 10.666 9.03487 10.666 8.66667C10.666 8.29847 10.9645 8 11.3327 8C11.7009 8 11.9993 8.29847 11.9993 8.66667Z" fill="#2764FE"/>
  <path d="M8.66634 11.3333C8.66634 11.7015 8.36787 12 7.99967 12C7.63147 12 7.33301 11.7015 7.33301 11.3333C7.33301 10.9651 7.63147 10.6666 7.99967 10.6666C8.36787 10.6666 8.66634 10.9651 8.66634 11.3333Z" fill="#2764FE"/>
  <path d="M8.66634 8.66667C8.66634 9.03487 8.36787 9.33333 7.99967 9.33333C7.63147 9.33333 7.33301 9.03487 7.33301 8.66667C7.33301 8.29847 7.63147 8 7.99967 8C8.36787 8 8.66634 8.29847 8.66634 8.66667Z" fill="#2764FE"/>
  <path d="M5.33333 11.3333C5.33333 11.7015 5.03486 12 4.66667 12C4.29848 12 4 11.7015 4 11.3333C4 10.9651 4.29848 10.6666 4.66667 10.6666C5.03486 10.6666 5.33333 10.9651 5.33333 11.3333Z" fill="#2764FE"/>
  <path d="M5.33333 8.66667C5.33333 9.03487 5.03486 9.33333 4.66667 9.33333C4.29848 9.33333 4 9.03487 4 8.66667C4 8.29847 4.29848 8 4.66667 8C5.03486 8 5.33333 8.29847 5.33333 8.66667Z" fill="#2764FE"/>
</svg>