<svg xmlns="http://www.w3.org/2000/svg" width="18" height="18" viewBox="0 0 18 18" fill="none">
  <g clip-path="url(#clip0_775_2757)">
    <path fill-rule="evenodd" clip-rule="evenodd" d="M9 2.0625C5.16853 2.0625 2.0625 5.16853 2.0625 9C2.0625 12.8315 5.16853 15.9375 9 15.9375C12.8315 15.9375 15.9375 12.8315 15.9375 9C15.9375 5.16853 12.8315 2.0625 9 2.0625ZM0.9375 9C0.9375 4.5472 4.5472 0.9375 9 0.9375C13.4528 0.9375 17.0625 4.5472 17.0625 9C17.0625 13.4528 13.4528 17.0625 9 17.0625C4.5472 17.0625 0.9375 13.4528 0.9375 9Z" fill="#2764FE"/>
    <path fill-rule="evenodd" clip-rule="evenodd" d="M9 5.4375C9.31065 5.4375 9.5625 5.68934 9.5625 6V8.76697L11.2727 10.4773C11.4924 10.6969 11.4924 11.0531 11.2727 11.2727C11.0531 11.4924 10.6969 11.4924 10.4773 11.2727L8.60227 9.39773C8.49675 9.29228 8.4375 9.14917 8.4375 9V6C8.4375 5.68934 8.68935 5.4375 9 5.4375Z" fill="#2764FE"/>
  </g>
  <defs>
    <clipPath id="clip0_775_2757">
      <rect width="18" height="18" fill="white"/>
    </clipPath>
  </defs>
</svg>