<svg xmlns="http://www.w3.org/2000/svg" width="20" height="20" viewBox="0 0 20 20" fill="none">
  <path d="M10.0002 18.8889C5.11133 18.8889 1.11133 14.8889 1.11133 9.99997C1.11133 5.11108 5.11133 1.11108 10.0002 1.11108C14.8891 1.11108 18.8891 5.11108 18.8891 9.99997C18.8891 14.8889 14.8891 18.8889 10.0002 18.8889ZM10.0002 2.2222C5.72244 2.2222 2.22244 5.7222 2.22244 9.99997C2.22244 14.2778 5.72244 17.7778 10.0002 17.7778C14.278 17.7778 17.778 14.2778 17.778 9.99997C17.778 5.7222 14.278 2.2222 10.0002 2.2222Z" fill="#6C6B6B"/>
  <path d="M14.9999 10C14.9999 9.66667 14.7777 9.44444 14.4443 9.44444H10.5554V5.55556C10.5554 5.22222 10.3332 5 9.99989 5C9.66656 5 9.44434 5.22222 9.44434 5.55556V10C9.44434 10.3333 9.66656 10.5556 9.99989 10.5556H14.4443C14.7777 10.5556 14.9999 10.3333 14.9999 10Z" fill="#6C6B6B"/>
</svg>