<svg xmlns="http://www.w3.org/2000/svg" width="17" height="16" viewBox="0 0 17 16" fill="none">
  <path d="M10.7859 14.8571H6.21443C4.95728 14.8571 3.92871 13.8286 3.92871 12.5714V5.14284C3.92871 4.79998 4.15728 4.57141 4.50014 4.57141H12.5001C12.843 4.57141 13.0716 4.79998 13.0716 5.14284V12.5714C13.0716 13.8286 12.043 14.8571 10.7859 14.8571ZM5.07157 5.71427V12.5714C5.07157 13.2 5.58585 13.7143 6.21443 13.7143H10.7859C11.4144 13.7143 11.9287 13.2 11.9287 12.5714V5.71427H5.07157Z" fill="#333333"/>
  <path d="M9.64272 12.5714C9.29986 12.5714 9.07129 12.3429 9.07129 12V7.42858C9.07129 7.08572 9.29986 6.85715 9.64272 6.85715C9.98557 6.85715 10.2141 7.08572 10.2141 7.42858V12C10.2141 12.3429 9.98557 12.5714 9.64272 12.5714Z" fill="#333333"/>
  <path d="M7.35756 12.5714C7.0147 12.5714 6.78613 12.3429 6.78613 12V7.42858C6.78613 7.08572 7.0147 6.85715 7.35756 6.85715C7.70042 6.85715 7.92899 7.08572 7.92899 7.42858V12C7.92899 12.3429 7.70042 12.5714 7.35756 12.5714Z" fill="#333333"/>
  <path d="M13.0717 3.42857H3.92885C3.58599 3.42857 3.35742 3.2 3.35742 2.85714C3.35742 2.51428 3.58599 2.28571 3.92885 2.28571H6.21456C6.21456 1.65714 6.72885 1.14285 7.35742 1.14285H9.64314C10.2717 1.14285 10.786 1.65714 10.786 2.28571H13.0717C13.4146 2.28571 13.6431 2.51428 13.6431 2.85714C13.6431 3.2 13.4146 3.42857 13.0717 3.42857Z" fill="#333333"/>
</svg>