<svg xmlns="http://www.w3.org/2000/svg" width="21" height="20" viewBox="0 0 21 20" fill="none">
  <path fill-rule="evenodd" clip-rule="evenodd" d="M18.4869 10.3439C16.873 13.242 13.8124 15.0424 10.501 15.0424C7.18753 15.0424 4.12694 13.242 2.51304 10.3439C2.38874 10.1188 2.38874 9.88094 2.51304 9.65609C4.12694 6.75797 7.18753 4.95781 10.501 4.95781C13.8124 4.95781 16.873 6.75797 18.4869 9.65609C18.6134 9.88094 18.6134 10.1188 18.4869 10.3439ZM19.5178 9.08148C17.696 5.80934 14.2411 3.77688 10.501 3.77688C6.75886 3.77688 3.3039 5.80934 1.4821 9.08148C1.15632 9.66531 1.15632 10.3346 1.4821 10.918C3.3039 14.1902 6.75886 16.2231 10.501 16.2231C14.2411 16.2231 17.696 14.1902 19.5178 10.918C19.8436 10.3347 19.8436 9.66531 19.5178 9.08148ZM10.501 12.4224C11.8363 12.4224 12.923 11.3358 12.923 9.99988C12.923 8.66398 11.8363 7.57734 10.501 7.57734C9.16362 7.57734 8.07698 8.66398 8.07698 9.99988C8.07698 11.3358 9.16366 12.4224 10.501 12.4224ZM10.501 6.39641C8.51206 6.39641 6.89604 8.01309 6.89604 9.99992C6.89604 11.9872 8.5121 13.6032 10.501 13.6032C12.4879 13.6032 14.1039 11.9871 14.1039 9.99992C14.1039 8.01309 12.4879 6.39641 10.501 6.39641Z" fill="#707070"/>
</svg>