<svg xmlns="http://www.w3.org/2000/svg" width="19" height="18" viewBox="0 0 19 18" fill="none">
  <path fill-rule="evenodd" clip-rule="evenodd" d="M17.2491 9.18154C15.6353 12.0797 12.5746 13.8801 9.26328 13.8801C5.94977 13.8801 2.88918 12.0797 1.27527 9.18154C1.15098 8.9565 1.15098 8.71861 1.27527 8.49377C2.88918 5.59564 5.94977 3.79549 9.26328 3.79549C12.5746 3.79549 15.6352 5.59564 17.2491 8.49377C17.3756 8.71861 17.3756 8.9565 17.2491 9.18154ZM18.2801 7.91916C16.4583 4.64701 13.0033 2.61455 9.26328 2.61455C5.52109 2.61455 2.06613 4.64701 0.244336 7.91916C-0.0814453 8.50299 -0.0814453 9.17232 0.244336 9.75572C2.06613 13.0279 5.52109 15.0608 9.26328 15.0608C13.0033 15.0608 16.4583 13.0279 18.2801 9.75572C18.6059 9.17236 18.6059 8.50299 18.2801 7.91916ZM9.26328 11.2601C10.5986 11.2601 11.6852 10.1735 11.6852 8.83756C11.6852 7.50166 10.5986 6.41502 9.26328 6.41502C7.92586 6.41502 6.83922 7.50166 6.83922 8.83756C6.83922 10.1735 7.9259 11.2601 9.26328 11.2601ZM9.26328 5.23408C7.2743 5.23408 5.65828 6.85076 5.65828 8.8376C5.65828 10.8249 7.27434 12.4409 9.26328 12.4409C11.2501 12.4409 12.8661 10.8248 12.8661 8.8376C12.8661 6.85076 11.2501 5.23408 9.26328 5.23408Z" fill="#707070"/>
  <path d="M0.655969 17.3735C0.293688 17.0089 0.295539 16.4197 0.660104 16.0574L16.5465 0.270504C16.9111 -0.0917774 17.5003 -0.0899251 17.8626 0.27464C18.2249 0.639205 18.223 1.22843 17.8584 1.59071L1.97204 17.3776C1.60748 17.7399 1.01825 17.738 0.655969 17.3735Z" fill="#707070"/>
</svg>