<svg xmlns="http://www.w3.org/2000/svg" width="20" height="20" viewBox="0 0 20 20" fill="none">
  <path d="M13.2728 7.54542C12.7819 7.54542 12.4546 7.21815 12.4546 6.72724C12.4546 6.23633 12.7819 5.90906 13.2728 5.90906C13.7637 5.90906 14.091 6.23633 14.091 6.72724C14.091 7.21815 13.7637 7.54542 13.2728 7.54542Z" fill="#2764FE"/>
  <path d="M14.5 1H5.5C3.04545 1 1 3.04545 1 5.5V14.5C1 16.9545 3.04545 19 5.5 19H14.5C16.9545 19 19 16.9545 19 14.5V5.5C19 3.04545 16.9545 1 14.5 1ZM2.63636 5.5C2.63636 3.94545 3.94545 2.63636 5.5 2.63636H14.5C16.0545 2.63636 17.3636 3.94545 17.3636 5.5V14.5C17.3636 14.9909 17.2 15.4818 17.0364 15.8909L11.9636 10.8182C10.9 9.75455 9.1 9.75455 8.03636 10.8182L3.04545 15.8091C2.8 15.4818 2.63636 14.9909 2.63636 14.5V5.5ZM5.5 17.3636C5.00909 17.3636 4.51818 17.2 4.10909 17.0364L9.1 12.0455C9.50909 11.6364 10.3273 11.6364 10.7364 12.0455L15.7273 17.0364C15.3182 17.2818 14.8273 17.3636 14.3364 17.3636H5.5Z" fill="#2764FE"/>
</svg>