<svg xmlns="http://www.w3.org/2000/svg" width="24" height="23" viewBox="0 0 24 23" fill="none">
  <path d="M22.12 11.7396C22.12 10.9921 22.0529 10.2733 21.9283 9.58333H12V13.661H17.6733C17.429 14.9787 16.6863 16.0952 15.5698 16.8427V19.4877H18.9767C20.97 17.6525 22.12 14.95 22.12 11.7396Z" fill="#4285F4"/>
  <path d="M12 22.0417C14.8463 22.0417 17.2325 21.0977 18.9767 19.4877L15.5698 16.8427C14.6258 17.4752 13.4183 17.849 12 17.849C9.25438 17.849 6.93042 15.9946 6.10146 13.5029H2.57959V16.2342C4.31417 19.6794 7.87917 22.0417 12 22.0417Z" fill="#34A853"/>
  <path d="M6.10145 13.5029C5.89062 12.8704 5.77083 12.1948 5.77083 11.5C5.77083 10.8052 5.89062 10.1296 6.10145 9.49709V6.76584H2.57958C1.84166 8.23483 1.45768 9.85609 1.45833 11.5C1.45833 13.201 1.86562 14.811 2.57958 16.2342L6.10145 13.5029Z" fill="#FBBC05"/>
  <path d="M12 5.15104C13.5477 5.15104 14.9373 5.68291 16.0298 6.72749L19.0533 3.70395C17.2277 2.00291 14.8415 0.958328 12 0.958328C7.87917 0.958328 4.31417 3.32062 2.57959 6.76583L6.10146 9.49708C6.93042 7.00541 9.25438 5.15104 12 5.15104Z" fill="#EA4335"/>
</svg>