<svg xmlns="http://www.w3.org/2000/svg" width="20" height="20" viewBox="0 0 20 20" fill="none">
  <path d="M17.8571 6.42854H7.85711C7.42854 6.42854 7.14282 6.14282 7.14282 5.71425V2.85711C7.14282 2.42854 7.42854 2.14282 7.85711 2.14282H17.8571C18.2857 2.14282 18.5714 2.42854 18.5714 2.85711V5.71425C18.5714 6.14282 18.2857 6.42854 17.8571 6.42854ZM8.57139 4.99996H17.1428V3.57139H8.57139V4.99996Z" fill="#2764FE"/>
  <path d="M17.8571 12.1428H7.85711C7.42854 12.1428 7.14282 11.8571 7.14282 11.4285V8.57134C7.14282 8.14277 7.42854 7.85706 7.85711 7.85706H17.8571C18.2857 7.85706 18.5714 8.14277 18.5714 8.57134V11.4285C18.5714 11.8571 18.2857 12.1428 17.8571 12.1428ZM8.57139 10.7142H17.1428V9.28563H8.57139V10.7142Z" fill="#2764FE"/>
  <path d="M17.8571 17.8571H7.85711C7.42854 17.8571 7.14282 17.5714 7.14282 17.1428V14.2857C7.14282 13.8571 7.42854 13.5714 7.85711 13.5714H17.8571C18.2857 13.5714 18.5714 13.8571 18.5714 14.2857V17.1428C18.5714 17.5714 18.2857 17.8571 17.8571 17.8571ZM8.57139 16.4286H17.1428V15H8.57139V16.4286Z" fill="#2764FE"/>
  <path d="M5.00002 6.42854H2.14287C1.7143 6.42854 1.42859 6.14282 1.42859 5.71425V2.85711C1.42859 2.42854 1.7143 2.14282 2.14287 2.14282H5.00002C5.42859 2.14282 5.7143 2.42854 5.7143 2.85711V5.71425C5.7143 6.14282 5.42859 6.42854 5.00002 6.42854ZM2.85716 4.99996H4.28573V3.57139H2.85716V4.99996Z" fill="#2764FE"/>
  <path d="M5.00002 12.1428H2.14287C1.7143 12.1428 1.42859 11.8571 1.42859 11.4285V8.57134C1.42859 8.14277 1.7143 7.85706 2.14287 7.85706H5.00002C5.42859 7.85706 5.7143 8.14277 5.7143 8.57134V11.4285C5.7143 11.8571 5.42859 12.1428 5.00002 12.1428ZM2.85716 10.7142H4.28573V9.28563H2.85716V10.7142Z" fill="#2764FE"/>
  <path d="M5.00002 17.8571H2.14287C1.7143 17.8571 1.42859 17.5714 1.42859 17.1428V14.2857C1.42859 13.8571 1.7143 13.5714 2.14287 13.5714H5.00002C5.42859 13.5714 5.7143 13.8571 5.7143 14.2857V17.1428C5.7143 17.5714 5.42859 17.8571 5.00002 17.8571ZM2.85716 16.4286H4.28573V15H2.85716V16.4286Z" fill="#2764FE"/>
</svg>