<svg xmlns="http://www.w3.org/2000/svg" width="14" height="14" viewBox="0 0 14 14" fill="none">
  <path d="M7 13C6.9 13 6.85 13 6.75 12.95C6.55 12.85 2 10.25 2 6C2 3.25 4.25 1 7 1C9.75 1 12 3.25 12 6C12 10.25 7.45 12.85 7.25 12.95C7.15 13 7.1 13 7 13ZM7 2C4.8 2 3 3.8 3 6C3 9.15 6.1 11.35 7 11.9C7.9 11.35 11 9.1 11 6C11 3.8 9.2 2 7 2Z" fill="#2764FE"/>
  <path d="M7 7.5C5.9 7.5 5 6.6 5 5.5C5 4.4 5.9 3.5 7 3.5C8.1 3.5 9 4.4 9 5.5C9 6.6 8.1 7.5 7 7.5ZM7 4.5C6.45 4.5 6 4.95 6 5.5C6 6.05 6.45 6.5 7 6.5C7.55 6.5 8 6.05 8 5.5C8 4.95 7.55 4.5 7 4.5Z" fill="#2764FE"/>
</svg>