<svg xmlns="http://www.w3.org/2000/svg" width="20" height="20" viewBox="0 0 20 20" fill="none">
  <path d="M18.3572 3.78573L16.2143 1.64287C15.9286 1.35716 15.5 1.35716 15.2143 1.64287L1.64287 15.2143C1.35716 15.5 1.35716 15.9286 1.64287 16.2143L3.78573 18.3572C3.92859 18.5 4.07145 18.5714 4.28573 18.5714C4.50002 18.5714 4.64287 18.5 4.78573 18.3572L18.3572 4.78573C18.6429 4.50002 18.6429 4.07145 18.3572 3.78573ZM4.28573 16.8572L3.14287 15.7143L8.92859 9.92859L10.0714 11.0714L4.28573 16.8572ZM11.0714 10.0714L9.92859 8.92859L15.7143 3.14287L16.8572 4.28573L11.0714 10.0714Z" fill="#2764FE"/>
  <path d="M13.5715 16.5714C13.5001 16.6428 13.4286 16.7143 13.3572 16.7857C12.9286 17 12.5001 17.0714 12.1429 17.0714C12.0715 17.5 12.0001 17.9285 11.8572 18.2857C11.7858 18.5 11.5715 18.5714 11.3572 18.5C11.2858 18.4285 11.2144 18.3571 11.1429 18.2857C10.9286 17.8571 10.8572 17.4285 10.8572 17.0714C10.4286 17 10.0001 16.9285 9.64293 16.7857C9.42864 16.7143 9.35721 16.5 9.42864 16.2857L9.64293 16.0714C10.0715 15.8571 10.5001 15.7857 10.8572 15.7857C10.9286 15.3571 11.0001 14.9285 11.1429 14.5714C11.2144 14.3571 11.4286 14.2857 11.6429 14.3571L11.8572 14.5714C12.0715 15 12.1429 15.4285 12.1429 15.7857C12.5715 15.8571 13.0001 15.9285 13.3572 16.0714C13.5715 16.1428 13.6429 16.3571 13.5715 16.5714Z" fill="#1E4777"/>
  <path d="M18.5715 12.9999C18.5001 13.1428 18.4287 13.2142 18.3572 13.2142C17.7144 13.4285 17.0715 13.4999 16.4287 13.5714C16.3572 14.2142 16.2858 14.8571 16.0715 15.4999C16.0001 15.7142 15.7858 15.7856 15.5715 15.7142C15.4287 15.6428 15.3572 15.5714 15.3572 15.4999C15.1429 14.8571 15.0715 14.2142 15.0001 13.5714C14.3572 13.4999 13.7144 13.4285 13.0715 13.2142C12.8572 13.1428 12.7858 12.9285 12.8572 12.7142C12.9287 12.5714 13.0001 12.4999 13.0715 12.4999C13.7144 12.2856 14.3572 12.2142 15.0001 12.1428C15.0715 11.4999 15.1429 10.8571 15.3572 10.2142C15.4287 9.99993 15.6429 9.9285 15.8572 9.99993C16.0001 10.0714 16.0715 10.1428 16.0715 10.2142C16.2858 10.8571 16.3572 11.4999 16.4287 12.1428C17.0715 12.2142 17.7144 12.2856 18.3572 12.4999C18.5001 12.5714 18.6429 12.7856 18.5715 12.9999Z" fill="#1E4777"/>
  <path d="M1.42861 4.14283C1.50004 3.99997 1.57147 3.92854 1.6429 3.92854C2.35719 3.71426 2.92861 3.64283 3.57147 3.5714C3.6429 2.92854 3.71433 2.28569 3.92861 1.64283C4.00004 1.49997 4.21433 1.35712 4.42861 1.42854C4.57147 1.49997 4.6429 1.5714 4.6429 1.64283C4.85719 2.35712 4.92861 2.92854 5.00004 3.5714C5.6429 3.64283 6.28576 3.71426 6.92861 3.92854C7.1429 3.99997 7.21433 4.21426 7.1429 4.42854C7.07147 4.49997 7.00004 4.5714 6.85719 4.64283C6.21433 4.85712 5.6429 4.92854 5.00004 4.99997C4.92861 5.64283 4.85719 6.21426 4.6429 6.85712C4.57147 7.0714 4.35719 7.21426 4.1429 7.14283C4.07147 7.0714 4.00004 6.99997 3.92861 6.85712C3.71433 6.21426 3.6429 5.64283 3.57147 4.99997C2.92861 4.92854 2.35719 4.85712 1.71433 4.64283C1.50004 4.5714 1.35719 4.35712 1.42861 4.14283Z" fill="#1E4777"/>
</svg>