<svg xmlns="http://www.w3.org/2000/svg" width="13" height="16" viewBox="0 0 13 16" fill="none">
  <g clip-path="url(#clip0_808_162)">
    <path d="M6.5 0V1.61679C6.5 1.61679 6.50074 1.61748 6.50111 1.61783C6.79176 1.60712 7.08241 1.61679 7.37232 1.64823C7.75887 1.69037 8.13505 1.76983 8.49235 1.91873C8.73931 2.02168 8.96702 2.15226 9.1651 2.32534C9.40614 2.53608 9.58757 2.78827 9.73604 3.06223C9.93968 3.43775 10.0682 3.84437 10.1311 4.261C10.1467 4.3636 10.1574 4.4669 10.14 4.57054C10.1241 4.66623 10.1022 4.76124 10.0774 4.85521C10.0496 4.95988 10.0711 5.05178 10.1374 5.13953C10.3203 5.3817 10.501 5.62525 10.6817 5.86915C10.7094 5.90646 10.7339 5.94688 10.752 5.98869C10.8057 6.11305 10.7587 6.25228 10.6406 6.32863C10.5836 6.36559 10.5188 6.39357 10.4554 6.42121C10.3988 6.44608 10.3373 6.46129 10.2799 6.48512C10.18 6.52692 10.1333 6.60362 10.1581 6.70242C10.1737 6.76426 10.207 6.8223 10.2355 6.88068C10.2625 6.93561 10.2548 7.00194 10.2118 7.04754C10.1929 7.06758 10.1711 7.08589 10.1474 7.10006C10.0804 7.14013 10.0793 7.13909 10.1285 7.19471C10.1889 7.26346 10.1889 7.36227 10.1289 7.43136C10.1093 7.45416 10.0874 7.47523 10.0667 7.49734C9.97041 7.5996 9.95153 7.71292 10.0063 7.83901C10.0533 7.94714 10.0745 8.06011 10.0659 8.17688C10.0515 8.37069 9.96041 8.5182 9.76307 8.5942C9.68568 8.62391 9.60275 8.64361 9.52018 8.65846C9.35616 8.68852 9.19028 8.66813 9.02515 8.66088C9.02515 8.66088 9.00404 8.66088 8.96813 8.66088C8.56936 8.66088 8.23835 8.93656 8.17837 9.30449C8.05656 10.0497 7.46785 10.5143 6.50074 10.5143V12.1311C8.88852 12.1311 10.8309 10.3188 10.8309 8.09086V4.04094C10.8301 1.81232 8.88778 0 6.5 0Z" fill="white"/>
    <path d="M6.15646 3.03355V3.45088H2.21582C2.23804 3.30889 2.2684 3.16967 2.30579 3.03355H6.15609H6.15646Z" fill="white"/>
    <path d="M6.57255 3.83987C6.21896 3.83987 5.93164 3.57144 5.93164 3.24186C5.93164 2.91229 6.21933 2.64386 6.57255 2.64386C6.92578 2.64386 7.21347 2.91229 7.21347 3.24186C7.21347 3.57144 6.92578 3.83987 6.57255 3.83987ZM6.57255 3.06119C6.46555 3.06119 6.37891 3.14237 6.37891 3.24186C6.37891 3.34136 6.46592 3.42254 6.57255 3.42254C6.67919 3.42254 6.7662 3.34136 6.7662 3.24186C6.7662 3.14237 6.67919 3.06119 6.57255 3.06119Z" fill="white"/>
    <path d="M7.56455 4.75365H2.16992V5.17097H7.56455V4.75365Z" fill="white"/>
    <path d="M7.98076 5.55996C7.62753 5.55996 7.33984 5.29153 7.33984 4.96196C7.33984 4.63238 7.62753 4.36395 7.98076 4.36395C8.33398 4.36395 8.62167 4.63238 8.62167 4.96196C8.62167 5.29153 8.33398 5.55996 7.98076 5.55996ZM7.98076 4.78128C7.87375 4.78128 7.78711 4.86246 7.78711 4.96196C7.78711 5.06145 7.87412 5.14264 7.98076 5.14264C8.08739 5.14264 8.1744 5.06145 8.1744 4.96196C8.1744 4.86246 8.08739 4.78128 7.98076 4.78128Z" fill="white"/>
    <path d="M5.42558 6.18077H2.16992V6.5981H5.42558V6.18077Z" fill="white"/>
    <path d="M3.91568 3.80568H2.1777C2.17288 3.88341 2.16992 3.96149 2.16992 4.04025V5.10844H3.90272V4.04025C3.90272 3.96114 3.9079 3.88306 3.91605 3.80568H3.91568Z" fill="white"/>
    <path d="M3.90272 5.52542H2.16992V6.53557H3.90272V5.52542Z" fill="white"/>
    <path d="M3.99958 3.38835C4.03587 3.26605 4.08215 3.14721 4.13806 3.03355C4.5483 2.19856 5.45321 1.61679 6.50066 1.61679V0C4.48499 0 2.787 1.29136 2.30603 3.03355C2.27419 3.14963 2.24864 3.26813 2.22754 3.38835H3.99921H3.99958Z" fill="white"/>
    <path d="M3.90272 8.09016V6.95288H2.16992V8.09016C2.16992 10.3181 4.11229 12.1301 6.4997 12.1301V10.5133C5.06792 10.5133 3.90235 9.42643 3.90235 8.08982L3.90272 8.09016Z" fill="white"/>
    <path d="M5.84306 6.98777C5.48984 6.98777 5.20215 6.71934 5.20215 6.38977C5.20215 6.06019 5.48984 5.79176 5.84306 5.79176C6.19629 5.79176 6.48398 6.06019 6.48398 6.38977C6.48398 6.71934 6.19629 6.98777 5.84306 6.98777ZM5.84306 6.20909C5.73606 6.20909 5.64942 6.29027 5.64942 6.38977C5.64942 6.48926 5.73643 6.57045 5.84306 6.57045C5.9497 6.57045 6.03671 6.48926 6.03671 6.38977C6.03671 6.29027 5.9497 6.20909 5.84306 6.20909Z" fill="white"/>
    <path d="M6.72364 13.4798H6.27637V15.8774H6.72364V13.4798Z" fill="white"/>
    <path d="M9.56826 15.5827H3.43164V16H9.56826V15.5827Z" fill="white"/>
    <path d="M6.5 13.6885C3.19176 13.6885 0.5 11.1769 0.5 8.09016H0.947269C0.947269 10.9472 3.43835 13.2715 6.50037 13.2715C9.56239 13.2715 12.0535 10.9472 12.0535 8.09016H12.5007C12.5007 11.1773 9.80898 13.6885 6.50074 13.6885H6.5Z" fill="white"/>
  </g>
  <defs>
    <clipPath id="clip0_808_162">
      <rect width="12" height="16" fill="white" transform="translate(0.5)"/>
    </clipPath>
  </defs>
</svg>