<svg xmlns="http://www.w3.org/2000/svg" width="16" height="16" viewBox="0 0 16 16" fill="none">
  <path fill-rule="evenodd" clip-rule="evenodd" d="M10.4336 2.84193L10.9758 2.90947C12.2274 3.06534 13.1668 4.12906 13.1668 5.3903V12.3833C13.1668 13.6079 12.2546 14.6407 11.0394 14.792C9.02103 15.0434 6.9793 15.0434 4.96088 14.792C3.74567 14.6407 2.8335 13.6079 2.8335 12.3833V5.3903C2.8335 4.12906 3.77296 3.06534 5.02453 2.90947L5.56676 2.84193C5.78155 2.06804 6.49119 1.5 7.3335 1.5H8.66683C9.50916 1.5 10.2188 2.06804 10.4336 2.84193ZM5.50016 3.85795L5.14812 3.9018C4.39718 3.99533 3.8335 4.63356 3.8335 5.3903V12.3833C3.8335 13.1033 4.36988 13.7107 5.08446 13.7997C7.02076 14.0408 8.97956 14.0408 10.9158 13.7997C11.6304 13.7107 12.1668 13.1033 12.1668 12.3833V5.3903C12.1668 4.63356 11.6032 3.99533 10.8522 3.9018L10.5002 3.85795V4.66667C10.5002 4.94281 10.2763 5.16667 10.0002 5.16667H6.00016C5.72402 5.16667 5.50016 4.94281 5.50016 4.66667V3.85795ZM6.50016 3.33333C6.50016 2.87309 6.87323 2.5 7.3335 2.5H8.66683C9.1271 2.5 9.50016 2.87309 9.50016 3.33333V4.16667H6.50016V3.33333Z" fill="#2764FE"/>
  <path d="M10.5 7.83334C10.5 7.55721 10.2761 7.33334 10 7.33334H6C5.72386 7.33334 5.5 7.55721 5.5 7.83334C5.5 8.10948 5.72386 8.33334 6 8.33334H10C10.2761 8.33334 10.5 8.10948 10.5 7.83334Z" fill="#2764FE"/>
  <path d="M9.83333 9.83334C9.83333 9.55721 9.60947 9.33334 9.33333 9.33334H6C5.72386 9.33334 5.5 9.55721 5.5 9.83334C5.5 10.1095 5.72386 10.3333 6 10.3333H9.33333C9.60947 10.3333 9.83333 10.1095 9.83333 9.83334Z" fill="#2764FE"/>
</svg>