<svg width="16" height="16" viewBox="0 0 16 16" fill="none" xmlns="http://www.w3.org/2000/svg">
<path fill-rule="evenodd" clip-rule="evenodd" d="M6.12395 13.3019C6.3299 13.1179 6.64598 13.1358 6.82994 13.3417C7.50034 14.0923 8.49848 14.0853 9.16454 13.3413C9.34868 13.1355 9.66481 13.1181 9.87054 13.3023C10.0763 13.4865 10.0937 13.8026 9.90954 14.0083C8.84994 15.1919 7.15601 15.2079 6.08414 14.0079C5.90018 13.8019 5.918 13.4859 6.12395 13.3019Z" fill="#6B6B6B"/>
<path fill-rule="evenodd" clip-rule="evenodd" d="M4.37326 2.92927C5.14755 1.93101 6.34743 1.17611 7.99722 1.17611C9.64676 1.17611 10.8466 1.93103 11.621 2.92924C12.3831 3.91174 12.7379 5.13245 12.7379 6.12246C12.7379 6.40662 12.7292 6.61758 12.7227 6.77767C12.7214 6.8106 12.7201 6.84134 12.719 6.87014C12.7126 7.04234 12.7138 7.12507 12.7271 7.207C12.7572 7.3934 12.8526 7.623 13.2335 8.46254C13.2373 8.47094 13.2409 8.4794 13.2442 8.488C13.5194 9.19634 13.4579 9.84794 13.1306 10.4001C12.8182 10.9269 12.2932 11.3149 11.7257 11.5981C10.5908 12.1642 9.09056 12.4079 7.99722 12.4079C6.90362 12.4079 5.40319 12.1642 4.26831 11.5981C3.7008 11.3149 3.1758 10.9269 2.86352 10.4C2.53626 9.8478 2.47486 9.1962 2.75026 8.48794C2.7536 8.47934 2.75716 8.47087 2.76096 8.46254C3.1419 7.623 3.23724 7.3934 3.26736 7.207C3.2806 7.12507 3.2819 7.04234 3.27546 6.87014C3.27438 6.84134 3.27312 6.8106 3.27178 6.77767C3.26522 6.61758 3.25659 6.40662 3.25659 6.12246C3.25659 5.1325 3.61116 3.91179 4.37326 2.92927ZM5.16342 3.54216C4.54424 4.34043 4.25659 5.34289 4.25659 6.12246C4.25659 6.38452 4.26431 6.57384 4.27081 6.7332C4.27222 6.76767 4.27356 6.80067 4.27476 6.83274C4.2814 7.01 4.28488 7.17874 4.25456 7.36647C4.19822 7.7152 4.02694 8.09267 3.68429 8.84774L3.6776 8.86247C3.51168 9.2976 3.56491 9.62207 3.72379 9.8902C3.89913 10.1861 4.23524 10.464 4.71471 10.7032C5.6738 11.1817 7.01089 11.4079 7.99722 11.4079C8.98322 11.4079 10.3202 11.1817 11.2793 10.7032C11.7588 10.464 12.0949 10.186 12.2704 9.89014C12.4293 9.62194 12.4826 9.29747 12.3168 8.8624L12.3102 8.84774C11.9675 8.09267 11.7962 7.7152 11.7399 7.36647C11.7096 7.17874 11.7131 7.01 11.7197 6.83274C11.7209 6.80067 11.7222 6.76767 11.7236 6.7332C11.7302 6.57385 11.7379 6.38453 11.7379 6.12246C11.7379 5.34294 11.4501 4.34048 10.8308 3.54218C10.2238 2.7596 9.30329 2.17611 7.99722 2.17611C6.69082 2.17611 5.77039 2.75962 5.16342 3.54216Z" fill="#776DED"/>
</svg>
