<svg xmlns="http://www.w3.org/2000/svg" width="24" height="24" viewBox="0 0 24 24" fill="none">
  <path fill-rule="evenodd" clip-rule="evenodd" d="M9.65249 18.9017C9.92257 18.6604 10.3371 18.6839 10.5783 18.9539C11.4575 19.9382 12.7664 19.929 13.6399 18.9534C13.8814 18.6835 14.296 18.6606 14.5657 18.9022C14.8355 19.1437 14.8585 19.5583 14.6169 19.8281C13.2273 21.3803 11.0059 21.4012 9.60028 19.8275C9.35904 19.5574 9.38241 19.1429 9.65249 18.9017Z" fill="#C4C4C5"/>
  <path fill-rule="evenodd" clip-rule="evenodd" d="M7.35669 5.29908C8.37209 3.98997 9.94561 3 12.1091 3C14.2723 3 15.8457 3.99 16.8613 5.29905C17.8607 6.58749 18.326 8.18832 18.326 9.48661C18.326 9.85925 18.3147 10.1359 18.3061 10.3459C18.3043 10.389 18.3027 10.4293 18.3012 10.4671C18.2928 10.6929 18.2945 10.8014 18.3119 10.9089C18.3514 11.1533 18.4764 11.4544 18.9759 12.5554C18.9809 12.5664 18.9856 12.5775 18.99 12.5888C19.3509 13.5177 19.2702 14.3722 18.841 15.0962C18.4313 15.7872 17.7428 16.296 16.9986 16.6673C15.5104 17.4097 13.5429 17.7293 12.1091 17.7293C10.675 17.7293 8.70733 17.4097 7.21906 16.6673C6.47484 16.296 5.78634 15.7872 5.37682 15.0962C4.94766 14.372 4.86714 13.5175 5.2283 12.5887C5.23267 12.5774 5.23734 12.5663 5.24233 12.5554C5.74189 11.4544 5.86693 11.1533 5.90642 10.9089C5.92378 10.8014 5.92549 10.6929 5.91705 10.4671C5.91563 10.4293 5.91398 10.389 5.91221 10.3459C5.90362 10.1359 5.8923 9.85926 5.8923 9.48661C5.8923 8.18839 6.35727 6.58755 7.35669 5.29908ZM8.39291 6.10282C7.58092 7.14967 7.20369 8.46429 7.20369 9.48661C7.20369 9.83028 7.21381 10.0786 7.22234 10.2875C7.22418 10.3327 7.22595 10.376 7.22752 10.4181C7.23622 10.6505 7.24079 10.8718 7.20102 11.118C7.12714 11.5753 6.90252 12.0703 6.45318 13.0605L6.44441 13.0798C6.22682 13.6505 6.29663 14.076 6.50498 14.4276C6.73492 14.8156 7.17569 15.1801 7.80447 15.4938C9.06222 16.1212 10.8157 16.4179 12.1091 16.4179C13.4022 16.4179 15.1554 16.1212 16.4132 15.4938C17.042 15.1801 17.4828 14.8155 17.7129 14.4275C17.9213 14.0758 17.9912 13.6503 17.7738 13.0798L17.7651 13.0605C17.3157 12.0703 17.0911 11.5753 17.0172 11.118C16.9775 10.8718 16.9821 10.6505 16.9908 10.4181C16.9923 10.376 16.9941 10.3327 16.9959 10.2875C17.0045 10.0786 17.0146 9.83029 17.0146 9.48661C17.0146 8.46436 16.6372 7.14973 15.8251 6.10285C15.029 5.07658 13.8219 4.31139 12.1091 4.31139C10.3959 4.31139 9.18888 5.07661 8.39291 6.10282Z" fill="#C4C4C5"/>
</svg>