<svg xmlns="http://www.w3.org/2000/svg" width="13" height="13" viewBox="0 0 13 13" fill="none">
  <g clip-path="url(#clip0_73_96)">
    <path fill-rule="evenodd" clip-rule="evenodd" d="M4.87861 10.0431C5.03307 9.90507 5.27013 9.91847 5.4081 10.0729C5.9109 10.6358 6.6595 10.6306 7.15905 10.0726C7.29715 9.91827 7.53425 9.90517 7.68855 10.0433C7.84285 10.1815 7.85595 10.4186 7.7178 10.5729C6.9231 11.4606 5.65265 11.4725 4.84875 10.5725C4.71078 10.4181 4.72415 10.181 4.87861 10.0431Z" fill="#6B6B6B"/>
    <path fill-rule="evenodd" clip-rule="evenodd" d="M3.56559 2.26357C4.14631 1.51487 5.04622 0.9487 6.28356 0.9487C7.52071 0.9487 8.42056 1.51489 9.00136 2.26355C9.57296 3.00043 9.83906 3.91596 9.83906 4.65846C9.83906 4.87158 9.83256 5.0298 9.82766 5.14987C9.82666 5.17457 9.82571 5.19762 9.82486 5.21922C9.82006 5.34837 9.82101 5.41042 9.83096 5.47187C9.85356 5.61167 9.92506 5.78387 10.2108 6.41352C10.2136 6.41982 10.2163 6.42617 10.2188 6.43262C10.4252 6.96387 10.3791 7.45257 10.1336 7.86667C9.89926 8.26182 9.50551 8.55282 9.07991 8.76517C8.22876 9.18977 7.10356 9.37252 6.28356 9.37252C5.46336 9.37252 4.33804 9.18977 3.48688 8.76517C3.06125 8.55282 2.66749 8.26182 2.43328 7.86662C2.18784 7.45247 2.14179 6.96377 2.34834 6.43257C2.35084 6.42612 2.35351 6.41977 2.35636 6.41352C2.64207 5.78387 2.71358 5.61167 2.73616 5.47187C2.74609 5.41042 2.74707 5.34837 2.74224 5.21922C2.74143 5.19762 2.74049 5.17457 2.73948 5.14987C2.73456 5.02981 2.72809 4.87159 2.72809 4.65846C2.72809 3.91599 2.99401 3.00046 3.56559 2.26357ZM4.15821 2.72324C3.69383 3.32194 3.47809 4.07379 3.47809 4.65846C3.47809 4.85501 3.48388 4.997 3.48875 5.11652C3.48981 5.14237 3.49082 5.16712 3.49172 5.19117C3.49669 5.32412 3.49931 5.45067 3.47656 5.59147C3.43431 5.85302 3.30585 6.13612 3.04886 6.70242L3.04385 6.71347C2.91941 7.03982 2.95933 7.28317 3.07849 7.48427C3.20999 7.70617 3.46207 7.91462 3.82168 8.09402C4.541 8.45287 5.54381 8.62252 6.28356 8.62252C7.02306 8.62252 8.02576 8.45287 8.74511 8.09402C9.10471 7.91462 9.35681 7.70612 9.48841 7.48422C9.60761 7.28307 9.64756 7.03972 9.52326 6.71342L9.51826 6.70242C9.26126 6.13612 9.13281 5.85302 9.09056 5.59147C9.06781 5.45067 9.07046 5.32412 9.07541 5.19117C9.07631 5.16712 9.07731 5.14237 9.07836 5.11652C9.08326 4.99701 9.08906 4.85502 9.08906 4.65846C9.08906 4.07383 8.87321 3.32198 8.40876 2.72326C7.95346 2.13632 7.26311 1.6987 6.28356 1.6987C5.30376 1.6987 4.61344 2.13634 4.15821 2.72324Z" fill="#776DED"/>
  </g>
  <defs>
    <clipPath id="clip0_73_96">
      <rect width="12" height="12" fill="white" transform="translate(0.285645 0.0666199)"/>
    </clipPath>
  </defs>
</svg>