<svg xmlns="http://www.w3.org/2000/svg" width="17" height="20" viewBox="0 0 17 20" fill="none">
  <g clip-path="url(#clip0_825_5018)">
    <path fill-rule="evenodd" clip-rule="evenodd" d="M15.5173 3.0055C16.4936 3.98181 16.4936 5.56472 15.5173 6.54103L7.0036 15.0547C6.49644 15.5619 5.8861 15.954 5.21402 16.2044L1.87972 17.447C1.55627 17.5675 1.19635 17.403 1.07582 17.0795C1.02336 16.9388 1.02336 16.7838 1.07582 16.6431L2.31834 13.3088C2.56879 12.6367 2.9609 12.0263 3.46806 11.5192L11.9817 3.0055C12.9581 2.02919 14.541 2.02919 15.5173 3.0055ZM4.77753 15.0331C5.23449 14.8628 5.6534 14.6052 6.01109 14.2752L4.2476 12.5117C3.91755 12.8694 3.65994 13.2883 3.48965 13.7452L3.08393 14.834L3.68877 15.4389L4.77753 15.0331ZM13.0583 7.23224L6.89712 13.3934L5.12935 11.6257L11.2905 5.46447L13.0583 7.23224ZM13.9422 6.34835L14.6334 5.65715C15.1216 5.16899 15.1216 4.37754 14.6334 3.88938C14.1452 3.40123 13.3538 3.40123 12.8656 3.88938L12.1744 4.58059L13.9422 6.34835Z" fill="#2764FE"/>
  </g>
  <defs>
    <clipPath id="clip0_825_5018">
      <rect width="17" height="20" fill="white"/>
    </clipPath>
  </defs>
</svg>