<svg xmlns="http://www.w3.org/2000/svg" width="17" height="16" viewBox="0 0 17 16" fill="none">
  <path d="M8.45226 1.50041C7.83697 1.50533 7.21362 1.60465 6.60368 1.80803C3.81539 2.73777 2.10632 5.55817 2.57726 8.45941C3.04823 11.3606 5.5619 13.4975 8.50111 13.4975C8.56677 13.4977 8.63181 13.485 8.69258 13.4602C8.75334 13.4353 8.8086 13.3987 8.85521 13.3524C8.90182 13.3062 8.9389 13.2512 8.96426 13.1906C8.98963 13.1301 9.00282 13.0651 9.00308 12.9994C9.00282 12.9338 8.98963 12.8688 8.96426 12.8082C8.9389 12.7477 8.90182 12.6927 8.85521 12.6464C8.8086 12.6002 8.75334 12.5636 8.69258 12.5387C8.63181 12.5138 8.56677 12.5011 8.50111 12.5014C6.04536 12.5014 3.95906 10.7252 3.56557 8.30119C3.17208 5.87715 4.59142 3.53406 6.92104 2.75725C9.2507 1.98043 11.7898 3.00307 12.9298 5.17815C14.0699 7.35323 13.4654 10.0236 11.5011 11.4975C11.4484 11.5369 11.404 11.5864 11.3705 11.643C11.337 11.6996 11.315 11.7623 11.3058 11.8274C11.2965 11.8925 11.3002 11.9589 11.3167 12.0226C11.3331 12.0863 11.3619 12.1461 11.4015 12.1986C11.4409 12.2515 11.4904 12.2959 11.5471 12.3295C11.6038 12.3632 11.6666 12.3852 11.7319 12.3945C11.7971 12.4037 11.8635 12.4 11.9273 12.3835C11.9911 12.367 12.0511 12.338 12.1036 12.2982C14.4547 10.5342 15.18 7.31659 13.8155 4.71329C12.7495 2.67945 10.6498 1.48316 8.45226 1.50041ZM11.007 4.50139C10.8751 4.5001 10.748 4.55097 10.6534 4.64293L8.50111 6.74645L6.85074 5.14098C6.8038 5.0949 6.7482 5.05855 6.68718 5.03398C6.62617 5.00942 6.56091 4.99714 6.49514 4.99784C6.42937 4.99854 6.36438 5.01222 6.3039 5.03808C6.24342 5.06394 6.18866 5.10147 6.14271 5.14853C6.09674 5.19574 6.06052 5.25157 6.03619 5.31281C6.01187 5.37405 5.9999 5.4395 6.00096 5.50539C6.00201 5.57127 6.01609 5.63631 6.04236 5.69674C6.06864 5.75717 6.10655 5.81181 6.15402 5.85752L8.15503 7.80186C8.24837 7.89264 8.37343 7.94344 8.50365 7.94344C8.63386 7.94344 8.75892 7.89264 8.85227 7.80186L11.3513 5.35559C11.4455 5.2629 11.4991 5.13672 11.5005 5.0046C11.5019 4.87248 11.451 4.74517 11.3589 4.65049C11.2663 4.55633 11.139 4.50298 11.007 4.50139ZM10.003 9.50041C9.87043 9.4999 9.74307 9.55208 9.64893 9.64548C9.5548 9.73888 9.50164 9.86585 9.50112 9.99846V12.5014C9.50164 12.634 9.5548 12.761 9.64893 12.8544C9.74307 12.9478 9.87043 12.9999 10.003 12.9994C10.135 12.9989 10.2614 12.9463 10.3547 12.853C10.4479 12.7597 10.5006 12.6333 10.5011 12.5014V9.99846C10.5006 9.86653 10.4479 9.74014 10.3547 9.64685C10.2614 9.55356 10.135 9.50093 10.003 9.50041ZM10.0011 13.5004C9.93547 13.5004 9.8705 13.5133 9.80984 13.5385C9.74917 13.5636 9.69404 13.6004 9.64761 13.6469C9.60118 13.6933 9.56437 13.7484 9.53924 13.8091C9.51412 13.8697 9.50118 13.9347 9.50118 14.0004C9.50118 14.133 9.55384 14.2602 9.64761 14.354C9.74137 14.4477 9.86852 14.5004 10.0011 14.5004C10.1337 14.5004 10.2609 14.4477 10.3547 14.354C10.4485 14.2602 10.5011 14.133 10.5011 14.0004C10.5011 13.9347 10.4882 13.8697 10.4631 13.8091C10.4379 13.7484 10.4011 13.6933 10.3547 13.6469C10.3083 13.6004 10.2531 13.5636 10.1925 13.5385C10.1318 13.5133 10.0668 13.5004 10.0011 13.5004Z" fill="#767676"/>
</svg>