<svg xmlns="http://www.w3.org/2000/svg" width="24" height="24" viewBox="0 0 24 24" fill="none">
  <path fill-rule="evenodd" clip-rule="evenodd" d="M8.19665 4.50755C8.19665 3.12266 9.37086 2 10.8194 2H13.1806C14.6291 2 15.8033 3.12267 15.8033 4.50755C15.8033 5.03821 16.4042 5.36991 16.8848 5.10455C18.1392 4.41211 19.7433 4.82302 20.4675 6.02238L21.6482 7.9775C22.3724 9.17686 21.9426 10.7105 20.6882 11.4029C20.2075 11.6683 20.2075 12.3316 20.6882 12.597C21.9426 13.2895 22.3724 14.823 21.6482 16.0224L20.4675 17.9775C19.7433 19.1768 18.1393 19.5878 16.8849 18.8954C16.4042 18.63 15.8033 18.9616 15.8033 19.4924C15.8033 20.8773 14.6291 22 13.1806 22H10.8194C9.37086 22 8.19665 20.8773 8.19665 19.4924C8.19665 18.9616 7.59576 18.63 7.1151 18.8954C5.86069 19.5878 4.25668 19.1768 3.53244 17.9775L2.35181 16.0224C1.62758 14.823 2.05737 13.2895 3.31179 12.597C3.79248 12.3316 3.79248 11.6683 3.31179 11.4029C2.05737 10.7105 1.62758 9.17686 2.35181 7.9775L3.53244 6.02236C4.25668 4.82301 5.86071 4.4121 7.11511 5.10455C7.5958 5.36989 8.19665 5.0382 8.19665 4.50755ZM10.8194 3.81818C10.4212 3.81818 10.0984 4.12682 10.0984 4.50755C10.0984 6.43787 7.91271 7.64428 6.16428 6.67914C5.81941 6.48876 5.37843 6.60174 5.17932 6.93145L3.9987 8.88659C3.79959 9.21632 3.91775 9.63795 4.26262 9.82832C6.01109 10.7935 6.01109 13.2064 4.26262 14.1715C3.91775 14.3619 3.79958 14.7835 3.9987 15.1133L5.17932 17.0685C5.37843 17.3982 5.8194 17.5111 6.16427 17.3207C7.91276 16.3555 10.0984 17.5621 10.0984 19.4924C10.0984 19.8732 10.4212 20.1818 10.8194 20.1818H13.1806C13.5788 20.1818 13.9017 19.8732 13.9017 19.4924C13.9017 17.5621 16.0872 16.3555 17.8357 17.3207C18.1806 17.5111 18.6216 17.3981 18.8207 17.0684L20.0012 15.1133C20.2003 14.7835 20.0823 14.3619 19.7374 14.1715C17.9889 13.2064 17.9889 10.7935 19.7374 9.82832C20.0823 9.63795 20.2003 9.21632 20.0012 8.88659L18.8207 6.93147C18.6216 6.60175 18.1806 6.48876 17.8356 6.67915C16.0872 7.64429 13.9017 6.4379 13.9017 4.50755C13.9017 4.12683 13.5788 3.81818 13.1806 3.81818H10.8194ZM12 9.27273C10.4246 9.27273 9.14748 10.4937 9.14748 12C9.14748 13.5063 10.4246 14.7273 12 14.7273C13.5753 14.7273 14.8525 13.5063 14.8525 12C14.8525 10.4937 13.5753 9.27273 12 9.27273ZM7.24582 12C7.24582 9.48962 9.37433 7.45455 12 7.45455C14.6256 7.45455 16.7542 9.48962 16.7542 12C16.7542 14.5104 14.6256 16.5455 12 16.5455C9.37433 16.5455 7.24582 14.5104 7.24582 12Z" fill="#2764FE"/>
</svg>