<svg xmlns="http://www.w3.org/2000/svg" width="20" height="20" viewBox="0 0 20 20" fill="none">
  <path d="M14.6835 8.01675H10.3085C9.96681 8.01675 9.68347 7.73342 9.68347 7.39175C9.68347 7.05009 9.96681 6.76675 10.3085 6.76675H14.6835C15.0251 6.76675 15.3085 7.05009 15.3085 7.39175C15.3085 7.73342 15.0335 8.01675 14.6835 8.01675Z" fill="#2764FE"/>
  <path d="M5.93297 8.65007C5.77464 8.65007 5.61631 8.59174 5.49131 8.46674L4.86631 7.84171C4.62464 7.60005 4.62464 7.20005 4.86631 6.95838C5.10798 6.71671 5.50798 6.71671 5.74964 6.95838L5.93297 7.14171L7.36631 5.70838C7.60798 5.46671 8.00798 5.46671 8.24964 5.70838C8.49133 5.95005 8.49133 6.35005 8.24964 6.59171L6.37464 8.46674C6.25798 8.58341 6.09964 8.65007 5.93297 8.65007Z" fill="#2764FE"/>
  <path d="M14.6835 13.8501H10.3085C9.96681 13.8501 9.68347 13.5667 9.68347 13.2251C9.68347 12.8834 9.96681 12.6001 10.3085 12.6001H14.6835C15.0251 12.6001 15.3085 12.8834 15.3085 13.2251C15.3085 13.5667 15.0335 13.8501 14.6835 13.8501Z" fill="#2764FE"/>
  <path d="M5.93297 14.4834C5.77464 14.4834 5.61631 14.4251 5.49131 14.3001L4.86631 13.6751C4.62464 13.4334 4.62464 13.0334 4.86631 12.7917C5.10798 12.5501 5.50798 12.5501 5.74964 12.7917L5.93297 12.9751L7.36631 11.5417C7.60798 11.3001 8.00798 11.3001 8.24964 11.5417C8.49133 11.7834 8.49133 12.1834 8.24964 12.4251L6.37464 14.3001C6.25798 14.4167 6.09964 14.4834 5.93297 14.4834Z" fill="#2764FE"/>
  <path d="M12.5 18.9583H7.49996C2.97496 18.9583 1.04163 17.025 1.04163 12.5V7.49999C1.04163 2.97499 2.97496 1.04166 7.49996 1.04166H12.5C17.025 1.04166 18.9583 2.97499 18.9583 7.49999V12.5C18.9583 17.025 17.025 18.9583 12.5 18.9583ZM7.49996 2.29166C3.65829 2.29166 2.29163 3.65832 2.29163 7.49999V12.5C2.29163 16.3417 3.65829 17.7083 7.49996 17.7083H12.5C16.3416 17.7083 17.7083 16.3417 17.7083 12.5V7.49999C17.7083 3.65832 16.3416 2.29166 12.5 2.29166H7.49996Z" fill="#2764FE"/>
</svg>