<svg xmlns="http://www.w3.org/2000/svg" width="16" height="17" viewBox="0 0 16 17" fill="none">
  <path d="M11.7471 6.74677H8.24707C7.97374 6.74677 7.74707 6.5201 7.74707 6.24677C7.74707 5.97343 7.97374 5.74677 8.24707 5.74677H11.7471C12.0204 5.74677 12.2471 5.97343 12.2471 6.24677C12.2471 6.5201 12.0271 6.74677 11.7471 6.74677Z" fill="#6B6B6B"/>
  <path d="M4.74638 7.25342C4.61971 7.25342 4.49305 7.20675 4.39305 7.10675L3.89305 6.60673C3.69971 6.4134 3.69971 6.0934 3.89305 5.90007C4.08638 5.70673 4.40638 5.70673 4.59971 5.90007L4.74638 6.04673L5.89305 4.90007C6.08638 4.70673 6.40638 4.70673 6.59971 4.90007C6.79307 5.0934 6.79307 5.4134 6.59971 5.60673L5.09971 7.10675C5.00638 7.20009 4.87971 7.25342 4.74638 7.25342Z" fill="#6B6B6B"/>
  <path d="M11.7471 11.4134H8.24707C7.97374 11.4134 7.74707 11.1867 7.74707 10.9134C7.74707 10.6401 7.97374 10.4134 8.24707 10.4134H11.7471C12.0204 10.4134 12.2471 10.6401 12.2471 10.9134C12.2471 11.1867 12.0271 11.4134 11.7471 11.4134Z" fill="#6B6B6B"/>
  <path d="M4.74638 11.9201C4.61971 11.9201 4.49305 11.8734 4.39305 11.7734L3.89305 11.2734C3.69971 11.0801 3.69971 10.7601 3.89305 10.5668C4.08638 10.3734 4.40638 10.3734 4.59971 10.5668L4.74638 10.7134L5.89305 9.56675C6.08638 9.37342 6.40638 9.37342 6.59971 9.56675C6.79307 9.76009 6.79307 10.0801 6.59971 10.2734L5.09971 11.7734C5.00638 11.8668 4.87971 11.9201 4.74638 11.9201Z" fill="#6B6B6B"/>
  <path d="M9.99967 15.5H5.99967C2.37967 15.5 0.833008 13.9534 0.833008 10.3334V6.33335C0.833008 2.71335 2.37967 1.16669 5.99967 1.16669H9.99967C13.6197 1.16669 15.1663 2.71335 15.1663 6.33335V10.3334C15.1663 13.9534 13.6197 15.5 9.99967 15.5ZM5.99967 2.16669C2.92634 2.16669 1.83301 3.26002 1.83301 6.33335V10.3334C1.83301 13.4067 2.92634 14.5 5.99967 14.5H9.99967C13.073 14.5 14.1663 13.4067 14.1663 10.3334V6.33335C14.1663 3.26002 13.073 2.16669 9.99967 2.16669H5.99967Z" fill="#405FBA"/>
</svg>