<svg xmlns="http://www.w3.org/2000/svg" width="16" height="16" viewBox="0 0 16 16" fill="none">
  <path d="M12.5711 13.7143H3.42829C2.17115 13.7143 1.14258 12.6857 1.14258 11.4286V9.71428C1.14258 9.37142 1.37115 9.14285 1.71401 9.14285C2.05686 9.14285 2.28544 9.37142 2.28544 9.71428V11.4286C2.28544 12.0571 2.79972 12.5714 3.42829 12.5714H12.5711C13.1997 12.5714 13.714 12.0571 13.714 11.4286V9.71428C13.714 9.37142 13.9426 9.14285 14.2854 9.14285C14.6283 9.14285 14.8569 9.37142 14.8569 9.71428V11.4286C14.8569 12.6857 13.8283 13.7143 12.5711 13.7143Z" fill="white"/>
  <path d="M7.99958 11.4286C7.65672 11.4286 7.42815 11.2 7.42815 10.8571V4.22856L6.6853 4.97142C6.45672 5.19999 6.11387 5.19999 5.8853 4.97142C5.65672 4.74285 5.65672 4.39999 5.8853 4.17142L7.59958 2.45713C7.82815 2.22856 8.17101 2.22856 8.39958 2.45713L10.1139 4.17142C10.3424 4.39999 10.3424 4.74285 10.1139 4.97142C9.8853 5.19999 9.54244 5.19999 9.31387 4.97142L8.57101 4.22856V10.8571C8.57101 11.2 8.34244 11.4286 7.99958 11.4286Z" fill="white"/>
</svg>