<svg xmlns="http://www.w3.org/2000/svg" width="24" height="24" viewBox="0 0 24 24" fill="none">
  <path fill-rule="evenodd" clip-rule="evenodd" d="M9.33383 14.9684L9.12605 15.0027C7.19883 15.3204 5.75 17.0477 5.75 19.1115C5.75 19.7634 6.25549 20.25 6.82813 20.25H17.1719C17.7445 20.25 18.25 19.7634 18.25 19.1115C18.25 17.0477 16.8012 15.3204 14.874 15.0027L14.6662 14.9684C12.8999 14.6772 11.1001 14.6772 9.33383 14.9684ZM14.9102 13.4884L15.118 13.5226C17.8042 13.9655 19.75 16.349 19.75 19.1115C19.75 20.5455 18.6185 21.75 17.1719 21.75H6.82813C5.38147 21.75 4.25 20.5455 4.25 19.1115C4.25 16.349 6.19583 13.9655 8.88203 13.5226L9.08981 13.4884C11.0177 13.1705 12.9823 13.1705 14.9102 13.4884Z" fill="#333333"/>
  <path fill-rule="evenodd" clip-rule="evenodd" d="M12.0003 3.75C10.1334 3.75 8.66699 5.20257 8.66699 6.9375C8.66699 8.67243 10.1334 10.125 12.0003 10.125C13.8672 10.125 15.3336 8.67243 15.3336 6.9375C15.3336 5.20257 13.8672 3.75 12.0003 3.75ZM7.16699 6.9375C7.16699 4.32319 9.35689 2.25 12.0003 2.25C14.6437 2.25 16.8336 4.32319 16.8336 6.9375C16.8336 9.55181 14.6437 11.625 12.0003 11.625C9.35689 11.625 7.16699 9.55181 7.16699 6.9375Z" fill="#333333"/>
</svg>